<svg width="140" height="145" viewBox="0 0 140 145" fill="none" xmlns="http://www.w3.org/2000/svg">
<path d="M56.6913 51.7338C55.9426 51.7338 55.045 51.7306 54.0234 51.7188M54.0234 51.7188C40.6448 51.5633 6.00143 49.9169 6.00143 34.3925C6.00143 28.7127 17.867 30.3907 22.0088 30.3907C34.9729 30.3907 19.5877 24.432 17.34 20.3861C16.3678 18.6362 14.8205 11.8628 15.4131 9.78865C15.8578 8.2325 22.5758 9.04757 24.0097 9.04757C29.3104 9.04757 37.6265 7.10591 40.684 12.4565C46.9802 23.4748 54.0178 39.1879 54.0234 51.7188ZM54.0234 51.7188C54.0234 51.7238 54.0234 51.7288 54.0234 51.7338M83.3703 59.7371C83.3703 43.6257 78.3068 11.1636 96.7097 3.415C100.878 1.6599 106.801 0.788975 111.383 1.04354C113.645 1.1692 112.813 7.31562 112.717 9.04721C112.567 11.7559 110 14.9451 108.084 16.9336M108.084 16.9336C107.945 17.0781 107.809 17.2162 107.678 17.3473C107.182 17.8434 107.414 17.5199 108.084 16.9336ZM108.084 16.9336C109.156 15.995 111.347 14.383 113.458 14.383C119.537 14.383 139.396 10.8463 139.396 20.3857C139.396 25.8279 122.795 37.6538 119.461 40.9878C116.452 43.9965 113.777 46.6087 110.049 48.4727C106.293 50.3506 102.126 57.3322 98.6366 58.3291C95.5182 59.22 82.7921 67.5633 83.3703 66.4068M88.7054 83.7478C105.921 83.7478 119.917 102.146 124.722 117.763C125.938 121.716 128.576 127.081 128.576 131.103C128.576 135.757 114.758 141.377 111.457 142.367C108.505 143.253 101.542 145.849 100.637 141.774C100.26 140.079 98.2732 132.488 97.376 131.77C97.0044 131.473 86.6398 137.287 83.3696 137.106C77.3131 136.769 78.0338 125.612 78.0338 121.098C78.0338 116.065 79.212 105.286 82.3321 101.386C84.6058 98.5434 87.3714 89.9924 87.3714 86.4157M51.3553 81.0799H40.0909C35.4037 81.0799 31.6081 78.6488 27.3443 78.412C21.6891 78.0978 8.54896 73.4391 4.3708 76.7816C1.54128 79.0452 1.99934 80.1462 1.99934 84.4147C1.99934 86.8503 1.2383 91.348 4.66723 91.7514C4.8666 91.7749 5.52945 91.9722 6.41432 92.2201M6.41432 92.2201C9.10728 92.9747 13.8566 94.1983 13.8566 92.4184C13.8566 91.2655 8.96804 91.3967 6.41432 92.2201ZM6.41432 92.2201C5.68192 92.4563 5.14157 92.7493 4.96367 93.0854C2.98013 96.832 -1.87472 112.788 3.33329 113.095C5.8746 113.244 6.5179 117.096 9.33604 117.096C13.8394 117.096 15.4807 116.276 19.3406 114.132C31.874 107.169 35.5787 90.3021 48.6874 83.7477" stroke="white" stroke-linecap="square"/>
</svg>
