<?xml version="1.0" encoding="utf-8"?>
<!-- Generator: Adobe Illustrator 26.5.0, SVG Export Plug-In . SVG Version: 6.00 Build 0)  -->
<svg version="1.1" id="Calque_1" xmlns="http://www.w3.org/2000/svg" xmlns:xlink="http://www.w3.org/1999/xlink" x="0px" y="0px"
	 viewBox="0 0 90 62" style="enable-background:new 0 0 90 62;" xml:space="preserve">
<style type="text/css">
	.st0{fill:#FFFFFF;}
	.st1{fill:none;stroke:#FFFFFF;}
</style>
<g>
	<path class="st0" d="M44.2,19.6v-8l-2.9,3.1L40.5,14l4.2-4.4l4.2,4.4l-0.7,0.7l-3-3.1v8H44.2z"/>
	<path class="st0" d="M45.8,41.3v8l2.9-3.1l0.7,0.7l-4.2,4.4L41.1,47l0.7-0.7l3,3.1v-8H45.8z"/>
	<path class="st0" d="M18.7,47.8h-7.7l3,3.1l-0.7,0.8l-4.2-4.4l4.2-4.4l0.7,0.7l-3,3.1h7.7V47.8z"/>
	<path class="st0" d="M70.1,46.2h7.7l-3-3.1l0.7-0.8l4.2,4.4L75.5,51l-0.7-0.7l3-3.1h-7.7V46.2z"/>
	<path class="st1" d="M54.8,0.8H35.1c-2.1,0-3.8,1.8-3.8,4v20.5c0,2.2,1.7,4,3.8,4h19.7c2.1,0,3.8-1.8,3.8-4V4.8
		C58.6,2.6,56.9,0.8,54.8,0.8z M35.1,32.7c-2.1,0-3.8,1.8-3.8,4v20.5c0,2.2,1.7,4,3.8,4h19.7c2.1,0,3.8-1.8,3.8-4V36.7
		c0-2.2-1.7-4-3.8-4H35.1z M65.7,32.7c-2.1,0-3.8,1.8-3.8,4v20.5c0,2.2,1.7,4,3.8,4h19.7c2.1,0,3.8-1.8,3.8-4V36.7
		c0-2.2-1.7-4-3.8-4H65.7z M4.5,32.7c-2.1,0-3.8,1.8-3.8,4v20.5c0,2.2,1.7,4,3.8,4h19.7c2.1,0,3.8-1.8,3.8-4V36.7c0-2.2-1.7-4-3.8-4
		H4.5z"/>
</g>
</svg>
