<svg width="82" height="54" viewBox="0 0 82 54" fill="none" xmlns="http://www.w3.org/2000/svg">
<mask id="path-1-outside-1_751_274" maskUnits="userSpaceOnUse" x="0" y="0" width="82" height="54" fill="black">
<rect fill="white" width="82" height="54"/>
<path d="M29 4C29 2.34315 30.3431 1 32 1H50C51.6569 1 53 2.34315 53 4V22C53 23.6569 51.6569 25 50 25H32C30.3431 25 29 23.6569 29 22V4Z"/>
<path d="M39.74 16.08H44.54V17.16H38V16.392L42.8 10.08H38V9H44.54V9.768L39.74 16.08Z"/>
<path d="M29 32C29 30.3431 30.3431 29 32 29H50C51.6569 29 53 30.3431 53 32V50C53 51.6569 51.6569 53 50 53H32C30.3431 53 29 51.6569 29 50V32Z"/>
<path d="M41.456 45.4C40.872 45.4 40.252 45.3 39.596 45.1C38.94 44.9 38.408 44.644 38 44.332V43.144C38.56 43.52 39.14 43.812 39.74 44.02C40.34 44.22 40.912 44.32 41.456 44.32C42.056 44.32 42.516 44.232 42.836 44.056C43.164 43.872 43.328 43.54 43.328 43.06C43.328 42.78 43.24 42.552 43.064 42.376C42.896 42.2 42.66 42.06 42.356 41.956C42.06 41.852 41.64 41.74 41.096 41.62C40.312 41.436 39.708 41.24 39.284 41.032C38.86 40.816 38.56 40.564 38.384 40.276C38.208 39.988 38.12 39.624 38.12 39.184C38.12 38.432 38.376 37.88 38.888 37.528C39.4 37.176 40.112 37 41.024 37C41.496 37 41.984 37.064 42.488 37.192C43 37.312 43.464 37.476 43.88 37.684V38.764C42.576 38.308 41.572 38.08 40.868 38.08C40.364 38.08 39.98 38.168 39.716 38.344C39.452 38.52 39.32 38.812 39.32 39.22C39.32 39.46 39.388 39.656 39.524 39.808C39.668 39.96 39.88 40.092 40.16 40.204C40.448 40.308 40.844 40.42 41.348 40.54C42.18 40.732 42.816 40.924 43.256 41.116C43.696 41.3 44.016 41.544 44.216 41.848C44.424 42.152 44.528 42.564 44.528 43.084C44.528 43.892 44.264 44.48 43.736 44.848C43.208 45.216 42.448 45.4 41.456 45.4Z"/>
<path d="M57 32C57 30.3431 58.3431 29 60 29H78C79.6569 29 81 30.3431 81 32V50C81 51.6569 79.6569 53 78 53H60C58.3431 53 57 51.6569 57 50V32Z"/>
<path d="M66 45.16V37H68.688C69.584 37 70.3 37.152 70.836 37.456C71.372 37.752 71.756 38.2 71.988 38.8C72.228 39.392 72.348 40.152 72.348 41.08C72.348 42.472 72.068 43.5 71.508 44.164C70.948 44.828 70.008 45.16 68.688 45.16H66ZM67.2 38.08V44.08H68.688C69.328 44.08 69.82 43.988 70.164 43.804C70.516 43.62 70.768 43.316 70.92 42.892C71.072 42.46 71.148 41.856 71.148 41.08C71.148 40.288 71.072 39.68 70.92 39.256C70.768 38.824 70.516 38.52 70.164 38.344C69.82 38.168 69.328 38.08 68.688 38.08H67.2Z"/>
<path d="M1 32C1 30.3431 2.34315 29 4 29H22C23.6569 29 25 30.3431 25 32V50C25 51.6569 23.6569 53 22 53H4C2.34315 53 1 51.6569 1 50V32Z"/>
<path d="M17 45.2829L16.0504 46L15.1365 44.7689C14.5035 45.1673 13.7715 45.3665 12.9407 45.3665C12.1335 45.3665 11.4332 45.1873 10.8398 44.8287C10.2463 44.4622 9.7913 43.9641 9.47478 43.3347C9.15826 42.6972 9 41.9801 9 41.1833C9 40.3865 9.15826 39.6733 9.47478 39.0438C9.7913 38.4064 10.2463 37.9084 10.8398 37.5498C11.4332 37.1833 12.1335 37 12.9407 37C13.7478 37 14.4481 37.1833 15.0415 37.5498C15.635 37.9084 16.09 38.4064 16.4065 39.0438C16.723 39.6733 16.8813 40.3865 16.8813 41.1833C16.8813 41.7251 16.8061 42.2351 16.6558 42.7131C16.5054 43.1833 16.2918 43.5976 16.0148 43.9562L17 45.2829ZM12.9407 44.2908C13.542 44.2908 14.0603 44.1673 14.4955 43.9203L13.2849 42.2948L14.2344 41.5777L15.3145 43.0239C15.5678 42.5618 15.6944 41.9482 15.6944 41.1833C15.6944 40.0996 15.4451 39.3108 14.9466 38.8167C14.456 38.3227 13.7873 38.0757 12.9407 38.0757C12.0861 38.0757 11.4135 38.3227 10.9228 38.8167C10.4322 39.3108 10.1869 40.0996 10.1869 41.1833C10.1869 42.2669 10.4322 43.0558 10.9228 43.5498C11.4135 44.0438 12.0861 44.2908 12.9407 44.2908Z"/>
</mask>
<path d="M39.74 16.08H44.54V17.16H38V16.392L42.8 10.08H38V9H44.54V9.768L39.74 16.08Z" fill="white"/>
<path d="M41.456 45.4C40.872 45.4 40.252 45.3 39.596 45.1C38.94 44.9 38.408 44.644 38 44.332V43.144C38.56 43.52 39.14 43.812 39.74 44.02C40.34 44.22 40.912 44.32 41.456 44.32C42.056 44.32 42.516 44.232 42.836 44.056C43.164 43.872 43.328 43.54 43.328 43.06C43.328 42.78 43.24 42.552 43.064 42.376C42.896 42.2 42.66 42.06 42.356 41.956C42.06 41.852 41.64 41.74 41.096 41.62C40.312 41.436 39.708 41.24 39.284 41.032C38.86 40.816 38.56 40.564 38.384 40.276C38.208 39.988 38.12 39.624 38.12 39.184C38.12 38.432 38.376 37.88 38.888 37.528C39.4 37.176 40.112 37 41.024 37C41.496 37 41.984 37.064 42.488 37.192C43 37.312 43.464 37.476 43.88 37.684V38.764C42.576 38.308 41.572 38.08 40.868 38.08C40.364 38.08 39.98 38.168 39.716 38.344C39.452 38.52 39.32 38.812 39.32 39.22C39.32 39.46 39.388 39.656 39.524 39.808C39.668 39.96 39.88 40.092 40.16 40.204C40.448 40.308 40.844 40.42 41.348 40.54C42.18 40.732 42.816 40.924 43.256 41.116C43.696 41.3 44.016 41.544 44.216 41.848C44.424 42.152 44.528 42.564 44.528 43.084C44.528 43.892 44.264 44.48 43.736 44.848C43.208 45.216 42.448 45.4 41.456 45.4Z" fill="white"/>
<path d="M66 45.16V37H68.688C69.584 37 70.3 37.152 70.836 37.456C71.372 37.752 71.756 38.2 71.988 38.8C72.228 39.392 72.348 40.152 72.348 41.08C72.348 42.472 72.068 43.5 71.508 44.164C70.948 44.828 70.008 45.16 68.688 45.16H66ZM67.2 38.08V44.08H68.688C69.328 44.08 69.82 43.988 70.164 43.804C70.516 43.62 70.768 43.316 70.92 42.892C71.072 42.46 71.148 41.856 71.148 41.08C71.148 40.288 71.072 39.68 70.92 39.256C70.768 38.824 70.516 38.52 70.164 38.344C69.82 38.168 69.328 38.08 68.688 38.08H67.2Z" fill="white"/>
<path d="M17 45.2829L16.0504 46L15.1365 44.7689C14.5035 45.1673 13.7715 45.3665 12.9407 45.3665C12.1335 45.3665 11.4332 45.1873 10.8398 44.8287C10.2463 44.4622 9.7913 43.9641 9.47478 43.3347C9.15826 42.6972 9 41.9801 9 41.1833C9 40.3865 9.15826 39.6733 9.47478 39.0438C9.7913 38.4064 10.2463 37.9084 10.8398 37.5498C11.4332 37.1833 12.1335 37 12.9407 37C13.7478 37 14.4481 37.1833 15.0415 37.5498C15.635 37.9084 16.09 38.4064 16.4065 39.0438C16.723 39.6733 16.8813 40.3865 16.8813 41.1833C16.8813 41.7251 16.8061 42.2351 16.6558 42.7131C16.5054 43.1833 16.2918 43.5976 16.0148 43.9562L17 45.2829ZM12.9407 44.2908C13.542 44.2908 14.0603 44.1673 14.4955 43.9203L13.2849 42.2948L14.2344 41.5777L15.3145 43.0239C15.5678 42.5618 15.6944 41.9482 15.6944 41.1833C15.6944 40.0996 15.4451 39.3108 14.9466 38.8167C14.456 38.3227 13.7873 38.0757 12.9407 38.0757C12.0861 38.0757 11.4135 38.3227 10.9228 38.8167C10.4322 39.3108 10.1869 40.0996 10.1869 41.1833C10.1869 42.2669 10.4322 43.0558 10.9228 43.5498C11.4135 44.0438 12.0861 44.2908 12.9407 44.2908Z" fill="white"/>
<path d="M29 4C29 2.34315 30.3431 1 32 1H50C51.6569 1 53 2.34315 53 4V22C53 23.6569 51.6569 25 50 25H32C30.3431 25 29 23.6569 29 22V4Z" stroke="white" stroke-width="2" mask="url(#path-1-outside-1_751_274)"/>
<path d="M39.74 16.08H44.54V17.16H38V16.392L42.8 10.08H38V9H44.54V9.768L39.74 16.08Z" stroke="white" stroke-width="2" mask="url(#path-1-outside-1_751_274)"/>
<path d="M29 32C29 30.3431 30.3431 29 32 29H50C51.6569 29 53 30.3431 53 32V50C53 51.6569 51.6569 53 50 53H32C30.3431 53 29 51.6569 29 50V32Z" stroke="white" stroke-width="2" mask="url(#path-1-outside-1_751_274)"/>
<path d="M41.456 45.4C40.872 45.4 40.252 45.3 39.596 45.1C38.94 44.9 38.408 44.644 38 44.332V43.144C38.56 43.52 39.14 43.812 39.74 44.02C40.34 44.22 40.912 44.32 41.456 44.32C42.056 44.32 42.516 44.232 42.836 44.056C43.164 43.872 43.328 43.54 43.328 43.06C43.328 42.78 43.24 42.552 43.064 42.376C42.896 42.2 42.66 42.06 42.356 41.956C42.06 41.852 41.64 41.74 41.096 41.62C40.312 41.436 39.708 41.24 39.284 41.032C38.86 40.816 38.56 40.564 38.384 40.276C38.208 39.988 38.12 39.624 38.12 39.184C38.12 38.432 38.376 37.88 38.888 37.528C39.4 37.176 40.112 37 41.024 37C41.496 37 41.984 37.064 42.488 37.192C43 37.312 43.464 37.476 43.88 37.684V38.764C42.576 38.308 41.572 38.08 40.868 38.08C40.364 38.08 39.98 38.168 39.716 38.344C39.452 38.52 39.32 38.812 39.32 39.22C39.32 39.46 39.388 39.656 39.524 39.808C39.668 39.96 39.88 40.092 40.16 40.204C40.448 40.308 40.844 40.42 41.348 40.54C42.18 40.732 42.816 40.924 43.256 41.116C43.696 41.3 44.016 41.544 44.216 41.848C44.424 42.152 44.528 42.564 44.528 43.084C44.528 43.892 44.264 44.48 43.736 44.848C43.208 45.216 42.448 45.4 41.456 45.4Z" stroke="white" stroke-width="2" mask="url(#path-1-outside-1_751_274)"/>
<path d="M57 32C57 30.3431 58.3431 29 60 29H78C79.6569 29 81 30.3431 81 32V50C81 51.6569 79.6569 53 78 53H60C58.3431 53 57 51.6569 57 50V32Z" stroke="white" stroke-width="2" mask="url(#path-1-outside-1_751_274)"/>
<path d="M66 45.16V37H68.688C69.584 37 70.3 37.152 70.836 37.456C71.372 37.752 71.756 38.2 71.988 38.8C72.228 39.392 72.348 40.152 72.348 41.08C72.348 42.472 72.068 43.5 71.508 44.164C70.948 44.828 70.008 45.16 68.688 45.16H66ZM67.2 38.08V44.08H68.688C69.328 44.08 69.82 43.988 70.164 43.804C70.516 43.62 70.768 43.316 70.92 42.892C71.072 42.46 71.148 41.856 71.148 41.08C71.148 40.288 71.072 39.68 70.92 39.256C70.768 38.824 70.516 38.52 70.164 38.344C69.82 38.168 69.328 38.08 68.688 38.08H67.2Z" stroke="white" stroke-width="2" mask="url(#path-1-outside-1_751_274)"/>
<path d="M1 32C1 30.3431 2.34315 29 4 29H22C23.6569 29 25 30.3431 25 32V50C25 51.6569 23.6569 53 22 53H4C2.34315 53 1 51.6569 1 50V32Z" stroke="white" stroke-width="2" mask="url(#path-1-outside-1_751_274)"/>
<path d="M17 45.2829L16.0504 46L15.1365 44.7689C14.5035 45.1673 13.7715 45.3665 12.9407 45.3665C12.1335 45.3665 11.4332 45.1873 10.8398 44.8287C10.2463 44.4622 9.7913 43.9641 9.47478 43.3347C9.15826 42.6972 9 41.9801 9 41.1833C9 40.3865 9.15826 39.6733 9.47478 39.0438C9.7913 38.4064 10.2463 37.9084 10.8398 37.5498C11.4332 37.1833 12.1335 37 12.9407 37C13.7478 37 14.4481 37.1833 15.0415 37.5498C15.635 37.9084 16.09 38.4064 16.4065 39.0438C16.723 39.6733 16.8813 40.3865 16.8813 41.1833C16.8813 41.7251 16.8061 42.2351 16.6558 42.7131C16.5054 43.1833 16.2918 43.5976 16.0148 43.9562L17 45.2829ZM12.9407 44.2908C13.542 44.2908 14.0603 44.1673 14.4955 43.9203L13.2849 42.2948L14.2344 41.5777L15.3145 43.0239C15.5678 42.5618 15.6944 41.9482 15.6944 41.1833C15.6944 40.0996 15.4451 39.3108 14.9466 38.8167C14.456 38.3227 13.7873 38.0757 12.9407 38.0757C12.0861 38.0757 11.4135 38.3227 10.9228 38.8167C10.4322 39.3108 10.1869 40.0996 10.1869 41.1833C10.1869 42.2669 10.4322 43.0558 10.9228 43.5498C11.4135 44.0438 12.0861 44.2908 12.9407 44.2908Z" stroke="white" stroke-width="2" mask="url(#path-1-outside-1_751_274)"/>
</svg>
