<?xml version="1.0" encoding="utf-8"?>
<!-- Generator: Adobe Illustrator 26.5.0, SVG Export Plug-In . SVG Version: 6.00 Build 0)  -->
<svg version="1.1" id="Calque_1" xmlns="http://www.w3.org/2000/svg" xmlns:xlink="http://www.w3.org/1999/xlink" x="0px" y="0px"
	 viewBox="0 0 504 313.6" style="enable-background:new 0 0 504 313.6;" xml:space="preserve">
<style type="text/css">
	.st0{fill-rule:evenodd;clip-rule:evenodd;fill:#FFFFFF;}
</style>
<path class="st0" d="M16.8,296.8V11.2C16.8,5,21.8,0,28,0H476c6.2,0,11.2,5,11.2,11.2v285.6H504v8.4c0,4.6-3.8,8.4-8.4,8.4H8.4
	c-4.7,0-8.4-3.7-8.4-8.4v-8.4H16.8z M476,296.8v-280H28v280h184.8l2.1,5.7c1.1,3,4.7,5.5,7.9,5.5h58.3c3.2,0,6.8-2.4,7.9-5.5
	l2.1-5.7H476z"/>
<path class="st0" d="M207.2,296.8h89.6v2.8h-89.6V296.8z"/>
</svg>
