<svg width="32" height="52" viewBox="0 0 32 52" fill="none" xmlns="http://www.w3.org/2000/svg">
<path d="M15.4947 9.7971C15.4947 9.38089 15.7964 9.04348 16.1684 9.04348C16.5405 9.04348 16.8421 9.38089 16.8421 9.7971V19.2174C16.8421 19.6336 16.5405 19.971 16.1684 19.971C15.7964 19.971 15.4947 19.6336 15.4947 19.2174V9.7971Z" fill="white"/>
<path d="M31.5 17.8986V34.1014C31.5 43.7646 24.5092 51.5 16 51.5C7.49083 51.5 0.5 43.7646 0.5 34.1014V17.8986C0.5 8.2354 7.49083 0.5 16 0.5C24.5092 0.5 31.5 8.2354 31.5 17.8986ZM16.3421 9.7971V19.2174C16.3421 19.3049 16.3105 19.374 16.272 19.4171C16.2344 19.4592 16.197 19.471 16.1684 19.471C16.1399 19.471 16.1025 19.4592 16.0648 19.4171C16.0264 19.374 15.9947 19.3049 15.9947 19.2174V9.7971C15.9947 9.70961 16.0264 9.64044 16.0648 9.59744C16.1025 9.55532 16.1399 9.54348 16.1684 9.54348C16.197 9.54348 16.2344 9.55532 16.272 9.59744C16.3105 9.64044 16.3421 9.70961 16.3421 9.7971ZM17.3421 19.2174V9.7971C17.3421 9.15894 16.8679 8.54348 16.1684 8.54348C15.469 8.54348 14.9947 9.15894 14.9947 9.7971V19.2174C14.9947 19.8556 15.469 20.471 16.1684 20.471C16.8679 20.471 17.3421 19.8556 17.3421 19.2174Z" stroke="white"/>
</svg>
