<?xml version="1.0" encoding="utf-8"?>
<!-- Generator: Adobe Illustrator 26.5.0, SVG Export Plug-In . SVG Version: 6.00 Build 0)  -->
<svg version="1.1" id="Calque_1" xmlns="http://www.w3.org/2000/svg" xmlns:xlink="http://www.w3.org/1999/xlink" x="0px" y="0px"
	 viewBox="0 0 17 15" style="enable-background:new 0 0 17 15;" xml:space="preserve">
<style type="text/css">
	.st0{fill-rule:evenodd;clip-rule:evenodd;}
</style>
<path class="st0" d="M10.5,14.9l-6.3-4H0.4V4.1h3.8l6.3-4V14.9z M4.5,4.8v5.4l5.4,3.5V1.3L4.5,4.8z M14,2c1.6,1.3,2.5,3.3,2.5,5.5
	c0,2.2-1,4.2-2.5,5.5l-0.5-0.5c1.4-1.2,2.3-3,2.3-5.1c0-2-0.9-3.9-2.3-5.1L14,2z M12.1,3.9c1,0.8,1.7,2.1,1.7,3.6s-0.6,2.7-1.7,3.6
	l-0.5-0.5c0.9-0.7,1.5-1.8,1.5-3.1c0-1.3-0.6-2.4-1.5-3.1L12.1,3.9z M3.8,4.8H1.1v5.4h2.7V4.8z"/>
</svg>
