<svg width="50" height="64" viewBox="0 0 50 64" fill="none" xmlns="http://www.w3.org/2000/svg">
<path d="M11.1745 43.6237C8.61231 43.6237 5.86553 40.2581 4.17862 38.5711C2.12005 36.5126 1.06934 32.9003 1.06934 30.0422C1.06934 25.4788 0.506934 20.4362 2.23532 16.1153C4.51658 10.4121 11.296 4.91293 16.6157 2.25309C21.3244 -0.101267 29.243 -0.163344 33.6303 2.90086C39.8981 7.27832 44.0283 11.6783 46.9311 18.7279C49.2935 24.4652 50.5144 28.7694 45.7652 33.5186C43.3334 35.9503 40.7664 37.2757 37.8192 38.9598C34.4697 40.8738 36.3193 43.6596 37.3874 46.7114C38.6414 50.2942 38.2133 55.018 37.992 58.7814C37.8572 61.0728 28.4122 60.5187 27.1311 60.919C25.0176 61.5795 21.9733 61.502 19.725 61.502C17.7263 61.502 17.723 56.7514 17.1987 55.2835C16.6002 53.6077 15.8384 50.4701 15.8384 48.6763C15.8384 46.9056 14.9373 45.7156 14.694 44.0124C14.4912 42.5926 11.3166 44.401 10.0085 44.401" stroke="white" stroke-linecap="round"/>
<path d="M21.2795 44.7891C21.2795 50.8366 22.8342 56.6213 22.8342 62.6674" stroke="white" stroke-linecap="round"/>
<path d="M24.7776 46.3438C24.9991 50.5522 28.2755 54.5131 28.2755 58.7808" stroke="white" stroke-linecap="round"/>
<path d="M29.4414 43.2344C29.9855 49.764 34.8181 55.4779 36.8259 61.5014" stroke="white" stroke-linecap="round"/>
<path d="M15.8384 16.8057C12.7486 16.8057 5.96699 15.2359 5.36615 19.7422C5.11586 21.6194 5.34456 23.652 5.34456 25.5505C5.34456 27.4986 7.64989 27.6882 9.23115 27.6882C13.1458 27.6882 13.794 26.4578 16.0111 23.6072C17.5004 21.6924 16.3256 19.3349 15.4497 17.583" stroke="white" stroke-linecap="round"/>
<path d="M32.162 14.4727C27.8773 14.4727 25.7881 16.0375 25.9435 20.3889C26.0913 24.5263 29.915 25.3551 33.328 25.3551C36.0112 25.3551 36.8294 21.522 36.135 19.4389C35.189 16.6009 33.2294 16.124 30.6074 15.25" stroke="white" stroke-linecap="round"/>
<path d="M18.1704 32.7401C18.1704 31.7849 18.5591 30.9575 18.5591 30.0195" stroke="white" stroke-linecap="round"/>
<path d="M20.1136 29.2422C20.1832 29.8685 22.2962 32.8598 22.8343 33.1288" stroke="white" stroke-linecap="round"/>
</svg>
