<svg width="275" height="426" viewBox="0 0 275 426" fill="none" xmlns="http://www.w3.org/2000/svg">
<path d="M86.8547 121.506C86.8547 137.592 87.2871 153.521 90.4129 169.345C93.6787 185.878 96.0258 202.328 97.3318 219.161C98.7939 238.006 102.695 256.464 102.867 275.402C103.034 293.799 106.135 311.463 108.649 329.567C109.167 333.296 109.157 337.844 110.181 341.428C110.589 342.856 110.714 344.122 110.922 345.579C111.217 347.638 117.338 345.452 118.484 345.184C134.899 341.342 151.29 339.868 167.806 336.782C181.018 334.314 194.553 336.587 207.639 334.311C209.178 334.044 214.092 335.042 215.348 333.965C216.721 332.789 215.842 327.642 215.842 326.058C215.842 320.639 215.179 315.367 214.508 309.996C211.352 284.745 213.316 258.471 207.787 233.592C205.084 221.429 202.616 209.643 200.72 197.317C199.297 188.07 197.905 178.496 195.333 169.493C190.141 151.321 184.588 133.526 181.199 114.884C180.456 110.797 183.34 90.3711 178.48 90.3711C174.853 90.3711 169.989 92.0542 166.323 92.595C151.986 94.7104 137.497 95.6 123.129 97.4877C109.443 99.2859 96.3152 99.9053 83.7412 105.494C79.1899 107.517 82.9409 112.169 83.2469 115.23C83.7217 119.977 83.9555 127.272 85.9651 131.291" stroke="white" stroke-width="3" stroke-linecap="round"/>
<path d="M76.1799 107.275C67.5913 107.275 58.7507 106.145 50.58 103.519C47.0823 102.395 44.2106 101.722 44.1553 106.089C44.025 116.38 43.5865 126.899 44.8472 137.125C45.8154 144.978 47.1244 152.78 47.9113 160.649C48.9372 170.908 48.6984 181.426 50.58 191.586C53.3139 206.349 54.241 221.404 57.4989 236.065C60.5723 249.895 62.233 264.449 63.5282 278.567C65.3105 297.993 68.1737 317.254 68.1737 336.784C68.1737 342.649 68.1737 348.513 68.1737 354.378C68.1737 356.613 67.1002 362.843 71.0401 360.605C76.3896 357.565 81.4661 353.942 86.8547 351.017C89.2005 349.744 90.7075 347.496 93.0817 346.372C97.5891 344.237 102.447 344.79 107.315 344.79" stroke="white" stroke-width="3" stroke-linecap="round"/>
<path d="M180.26 93.0403C189.415 91.3757 197.477 78.4098 202.005 71.2953C202.667 70.2545 202.442 70.0337 202.697 71.5918C203.713 77.8054 204.585 84.0452 206.057 90.1739C207.726 97.1189 210.427 103.678 212.68 110.436C215.859 119.973 217.753 129.867 219.796 139.693C224.556 162.587 228.156 185.666 232.3 208.685C235.84 228.353 238.923 248.645 239.812 268.632C240.915 293.449 246.088 318.113 246.088 343.01C246.088 348.527 230.813 342.455 228.297 341.231C224.408 339.339 220.134 337.631 215.892 336.783C214.203 336.445 210.322 336.417 209.616 335.004" stroke="white" stroke-width="3" stroke-linecap="round"/>
<path d="M115.321 367.027C109.866 367.3 105.061 370.473 99.8525 371.871C97.9742 372.374 93.6481 372.454 92.39 374.342C90.801 376.725 93.0818 384.992 93.0818 387.833C93.0818 390.88 93.8001 394.988 92.8842 397.965C91.2727 403.202 91.5908 408.702 91.3027 414.175C91.2356 415.449 81.522 418.028 79.7383 418.622" stroke="white" stroke-width="3" stroke-linecap="round"/>
<path d="M144.677 362.582C152.354 362.582 160.827 369.181 161.529 377.26C161.801 380.381 161.059 382.092 159.997 384.821C159.12 387.078 167.23 388.3 168.695 389.071C170.7 390.127 169.585 396.539 169.585 398.56C169.585 402.999 169.625 403.947 173.538 405.726C176.115 406.897 175.741 406.803 175.812 409.927C175.941 415.613 179.043 419.469 182.039 423.962" stroke="white" stroke-width="3" stroke-linecap="round"/>
<path d="M223.849 362.581C223.849 356.962 239.439 360.982 243.222 362.383C245.955 363.395 245.179 372.167 245.198 374.343C245.218 376.566 243.65 386.435 245.396 388.18C247.596 390.38 256.15 386.739 258.74 385.907C262.927 384.561 268.393 383.041 272.775 383.041" stroke="white" stroke-width="3" stroke-linecap="round"/>
<path d="M51.2721 75.249C47.0624 74.828 37.188 71.8925 36.2482 67.1935C35.6805 64.3546 36.0672 60.915 37.4838 58.3966C38.7066 56.2226 40.5832 56.5822 37.9285 54.5912C31.723 49.937 21.7471 46.7827 13.9101 46.7827C10.1457 46.7827 3.65115 45.3617 2.3457 41.4453" stroke="white" stroke-width="3" stroke-linecap="round"/>
<path d="M134.892 51.2311C134.892 46.8088 135.965 41.0881 134.694 36.8003C134.042 34.5991 134.047 32.4284 133.113 30.3262C132.558 29.0779 131.333 28.0553 131.333 26.7185C131.333 21.7041 138.45 19.1658 138.45 15.2035C138.45 10.7177 136.671 6.68438 136.671 2.30469" stroke="white" stroke-width="3" stroke-linecap="round"/>
<path d="M205.168 53.8995C205.168 47.726 202.824 33.9607 208.924 30.0788C213.715 27.0298 221.885 30.0675 225.826 26.5205C231.108 21.7661 236.608 16.8174 239.861 10.3105" stroke="white" stroke-width="3" stroke-linecap="round"/>
<path d="M50.3823 106.383C50.3823 113.26 51.2719 120.024 51.2719 126.843C51.2719 128.673 50.3374 134.126 51.4696 135.541C53.2883 137.814 52.9052 142.005 53.7429 144.832C54.5191 147.452 55.7197 151.389 55.7197 153.975C55.7197 157.668 58.03 161.168 59.278 164.6C61.6093 171.011 61.9467 178.252 61.9467 185.06C61.9467 195.911 62.8761 207.94 66.1969 218.271C67.5788 222.57 68.8402 226.749 69.7552 231.12C71.3275 238.632 71.1645 245.408 71.9297 252.964C72.7873 261.433 72.9147 270.19 74.2031 278.564C74.6285 281.33 73.8101 284.27 75.2903 286.768C76.9958 289.646 77.5788 294.283 77.9096 297.591C78.969 308.185 81.5173 318.446 81.5173 329.22C81.5173 337.375 81.5173 345.529 81.5173 353.684" stroke="white" stroke-width="3" stroke-linecap="round"/>
<path d="M198.051 83.2539C198.399 86.3815 200.329 90.2727 201.214 93.4346C202.018 96.304 202.499 98.4994 202.499 101.49C202.499 104.41 203.078 107.062 203.339 109.941C203.545 112.207 202.69 115.444 203.833 117.502C206.099 121.58 205.195 126.959 207.145 131.291C209.394 136.29 210.793 140.124 211.593 145.524C212.903 154.367 213.204 163.415 214.953 172.162C215.834 176.564 217.507 180.811 218.462 185.11C219.615 190.297 221.908 195.116 223.355 200.282C225.719 208.727 224.738 218.163 224.738 226.821C224.738 244.903 233.634 261.553 233.634 279.8C233.634 293.858 233.047 307.899 236.105 321.659C237.504 327.955 237.192 334.562 237.192 341.229" stroke="white" stroke-width="3" stroke-linecap="round"/>
<path d="M102.867 290.526C102.867 281.668 107.247 275.708 109.094 267.397C109.841 264.035 112.022 261.682 112.652 258.057C113.428 253.598 115.509 249.173 117.1 244.96C120.199 236.758 121.484 227.956 125.106 219.805C126.867 215.843 128.15 210.347 130.444 206.906" stroke="white" stroke-width="3" stroke-linecap="round"/>
<path d="M83.2964 107.273C90.0409 107.273 93.6169 112.522 99.111 115.971C103.196 118.537 106.514 121.933 110.181 124.867C114.672 128.46 121.826 130.541 126.885 133.071" stroke="white" stroke-width="3" stroke-linecap="round"/>
<path d="M127.775 133.961C127.775 149.59 126.953 165.49 127.775 181.108C128.235 189.847 134.002 197.211 134.002 206.016" stroke="white" stroke-width="3" stroke-linecap="round"/>
<path d="M126.886 135.741C138.833 135.741 150.516 133.072 162.469 133.072C164.989 133.072 167.509 133.072 170.03 133.072C171.601 133.072 171.1 131.87 172.254 131.293" stroke="white" stroke-width="3" stroke-linecap="round"/>
<path d="M132.223 210.463C148.902 210.463 165.428 202.457 182.039 202.457" stroke="white" stroke-width="3" stroke-linecap="round"/>
<path d="M172.254 128.623C172.254 147.764 174.923 166.726 174.923 185.753C174.923 188.912 175.602 193.005 177.147 195.786C178.441 198.115 182.039 199.828 182.039 202.457" stroke="white" stroke-width="3" stroke-linecap="round"/>
<path d="M182.039 207.795C187.096 212.852 190.907 218.429 194.938 224.252C197.083 227.351 198.429 233.581 201.61 235.569C202.932 236.396 206.56 242.301 206.898 243.823C207.5 246.534 211.128 247.293 212.284 249.605" stroke="white" stroke-width="3" stroke-linecap="round"/>
<path d="M170.475 127.734C170.475 120.712 172.48 112.106 176.899 106.582C178.542 104.529 178.853 98.6363 181.149 97.4883" stroke="white" stroke-width="3" stroke-linecap="round"/>
<path d="M142.898 116.17C145.403 116.17 153.937 120.958 148.73 122.446C144.237 123.73 142.008 122.453 142.008 117.059" stroke="white" stroke-width="3" stroke-linecap="round"/>
<path d="M136.671 104.606C139.295 104.606 143.175 104.087 145.567 103.024C146.485 102.616 148.153 103.331 148.235 101.937C148.345 100.066 148.537 100.813 148.038 101.937C146.781 104.764 139.595 109.564 137.56 105.495" stroke="white" stroke-width="3" stroke-linecap="round"/>
<path d="M98.4194 120.617C98.4194 133.805 102.761 145.929 104.449 158.869C105.288 165.306 106.971 170.983 108.699 177.154C110.233 182.633 110.677 189.024 112.653 194.254C116.609 204.727 119.769 218.247 119.769 229.145" stroke="white" stroke-width="3" stroke-linecap="round"/>
<path d="M148.235 137.52C148.235 145.505 149.125 153.795 149.125 161.538C149.125 167.022 148.482 174.324 150.706 179.329C151.693 181.549 158.21 178.44 161.579 178.44C163.982 178.44 172.99 179.636 174.033 177.55" stroke="white" stroke-width="3" stroke-linecap="round"/>
</svg>
