<svg width="60" height="52" viewBox="0 0 60 52" fill="none" xmlns="http://www.w3.org/2000/svg">
<path d="M2.61964 4.01507C2.61964 16.5026 2.61964 28.9901 2.61964 41.4776C2.61964 43.2035 1.59381 49.2993 2.77906 50.4845C3.51215 51.2176 7.41145 49.9936 8.19917 49.9266C13.7468 49.4544 19.3059 49.0588 24.858 48.6513C32.6423 48.0799 40.5663 48.4918 48.3717 48.4918C50.9431 48.4918 53.6089 47.1406 56.1034 46.4992C59.4472 45.6393 58.7171 44.9816 57.8569 41.1588C56.1006 33.3529 54.0133 25.5206 52.6759 17.6451C52.3415 15.6755 51.8019 4.73244 49.9659 4.73244C45.6617 4.73244 41.3575 4.73244 37.0533 4.73244C30.146 4.73244 23.6829 2.76689 16.967 2.58033C12.0636 2.44413 7.00248 -1.10086 3.33701 3.2977" stroke="white" stroke-linecap="round"/>
<path d="M3.33691 20.5142C18.7418 20.5142 33.9511 19.7969 49.2484 19.7969" stroke="white" stroke-linecap="round"/>
<path d="M1.18506 19.0803C3.60513 18.7778 6.22255 11.9665 8.35873 10.6313C9.90176 9.66695 10.7614 7.5364 12.105 6.32714C13.089 5.44153 14.1181 5.40947 14.815 4.01562" stroke="white" stroke-linecap="round"/>
<path d="M9.07617 20.5139C9.44159 17.2252 15.08 13.0754 17.3259 10.8295C18.8302 9.32521 21.9437 6.18915 23.4235 5.44922" stroke="white" stroke-linecap="round"/>
<path d="M19.1191 19.7979C21.2382 19.5625 25.0361 14.3328 25.6153 12.3054C26.2929 9.93401 29.3267 7.16179 31.3144 6.16797" stroke="white" stroke-linecap="round"/>
<path d="M28.4448 20.5151C29.1422 17.0282 36.025 12.2176 38.488 9.75456C39.8367 8.40582 41.4643 4.67958 42.7922 4.01562" stroke="white" stroke-linecap="round"/>
<path d="M42.0747 19.0794C42.0747 14.8608 41.3742 9.74525 45.6616 7.60156" stroke="white" stroke-linecap="round"/>
<path d="M20.5538 26.9727C20.5538 29.4702 20.5538 31.9677 20.5538 34.4652C20.5538 37.0386 20.024 37.6872 22.148 36.2984C24.3153 34.8813 27.3786 35.1428 29.3216 33.5884C31.6514 31.7246 28.3065 32.1747 26.8507 30.7189C25.76 29.6282 24.0254 28.3498 22.7059 27.69" stroke="white" stroke-linecap="round"/>
</svg>
