<svg width="323" height="122" viewBox="0 0 323 122" fill="none" xmlns="http://www.w3.org/2000/svg">
<g opacity="0.5">
<path d="M2.09667 78.0298C58.5477 78.8733 115.739 76.7841 171.716 84.6844C199.356 88.5855 227.844 87.5831 255.724 87.9997C269.008 88.1982 283.563 88.7836 296.553 86.0349C299.508 85.4096 322.746 86.2211 321.336 81.7703" stroke="white" stroke-width="3" stroke-linecap="round"/>
<path d="M71.8913 2.23633C71.5132 6.01755 68.8017 8.7437 68.8017 12.7639C68.8017 18.1019 68.7156 23.4471 68.8017 28.7841C68.9496 37.9557 75.3884 46.073 84.2497 48.3516C92.1443 50.3816 98.0572 50.4569 104.046 44.6898C108.179 40.7096 110.504 36.3681 112.857 31.0727C116.285 23.36 103.261 12.7982 97.638 9.67427C89.9239 5.38864 81.5498 6.3558 72.9212 6.3558" stroke="white" stroke-width="3" stroke-linecap="round"/>
<path d="M101.758 47.5508C119.295 47.5508 132.705 61.3373 148.331 67.3472C151.796 68.6801 156.247 70.248 159.43 72.0388C160.599 72.696 159.389 85.6835 159.659 87.4868C161.417 99.2052 169.175 108.71 172.819 119.642" stroke="white" stroke-width="3" stroke-linecap="round"/>
<path d="M160.46 68.1482C167.917 68.1482 175.215 67.1183 182.602 67.1183C186.717 67.1183 191.952 66.8203 195.476 65.0586" stroke="white" stroke-width="3" stroke-linecap="round"/>
<path d="M114.116 51.6697C114.116 43.5619 112.219 33.3782 115.947 25.923C119.031 19.7542 119.373 11.397 124.415 6.35547" stroke="white" stroke-width="3" stroke-linecap="round"/>
<path d="M112.056 53.7299C100.223 53.7299 87.8104 52.6998 76.0681 54.2449C69.3311 55.1313 62.39 54.8761 56.4434 57.8494" stroke="white" stroke-width="3" stroke-linecap="round"/>
</g>
</svg>
