<svg width="47" height="69" viewBox="0 0 47 69" fill="none" xmlns="http://www.w3.org/2000/svg">
<path d="M0.841797 7.31348C0.841797 26.6406 1.75514 45.9716 1.75514 65.3105C1.75514 66.5532 1.25383 68.0505 2.87144 68.0505C10.9434 68.0505 19.1562 66.0098 27.2271 65.4119C28.235 65.3373 35.1469 65.6985 35.9038 64.7523C36.1664 64.424 35.5008 62.3023 35.4472 61.9108C35.0276 58.8478 34.5676 55.7949 34.1786 52.7267C32.5262 39.6907 29.1885 26.9303 27.5316 13.8591C27.0438 10.0114 26.0245 8.46819 21.8486 7.87163C17.3849 7.23397 13.1052 6.85681 8.60517 6.85681C7.23356 6.85681 2.78826 6.16056 2.2118 7.31348" stroke="white" stroke-linecap="round"/>
<path d="M3.125 6.40143C10.7185 6.40143 18.1801 2.74808 25.7301 2.74808C27.2597 2.74808 29.8491 1.84571 31.0833 1.02288C31.9496 0.445336 37.6043 10.9754 37.8065 12.7948C38.1623 15.9975 38.7452 19.3674 38.7452 22.6132C38.7452 27.0135 39.8306 31.1905 40.4704 35.5268C41.3468 41.4669 43.3252 48.3476 46.2802 53.6667C46.7881 54.5809 37.8669 58.4617 36.4618 58.4617" stroke="white" stroke-linecap="round"/>
<path d="M23.2184 36.0856C20.9474 36.0856 18.4671 35.8481 16.3684 36.8974C15.4335 37.3649 16.3684 39.6789 16.3684 40.6523" stroke="white" stroke-linecap="round"/>
</svg>
