<svg width="37" height="37" viewBox="0 0 37 37" fill="none" xmlns="http://www.w3.org/2000/svg">
<path fill-rule="evenodd" clip-rule="evenodd" d="M33.9167 20.0416C33.875 11.5671 26.9838 4.62496 18.5 4.62496C10.0162 4.62496 3.12496 11.5671 3.08333 20.0416H6.9375C8.214 20.0416 9.25 21.0776 9.25 22.3541V33.1458C9.25 34.4223 8.214 35.4583 6.9375 35.4583H2.3125C1.036 35.4583 0 34.4223 0 33.1458V20.0416C0.041625 9.86508 8.31575 1.54163 18.5 1.54163C28.6842 1.54163 36.9584 9.86508 37 20.0416V33.1458C37 34.4223 35.964 35.4583 34.6875 35.4583H30.0625C28.786 35.4583 27.75 34.4223 27.75 33.1458V22.3541C27.75 21.0776 28.786 20.0416 30.0625 20.0416H33.9167Z" fill="white"/>
</svg>
