<svg width="332" height="233" viewBox="0 0 332 233" fill="none" xmlns="http://www.w3.org/2000/svg">
<path d="M1 140.525C16.9665 140.525 32.8769 140.631 48.8037 139.392C55.9804 138.834 63.2296 140.061 70.3925 139.059C79.5908 137.772 88.5147 136.926 97.764 136.926C119.538 136.926 141.313 136.926 163.087 136.926C173.939 136.926 184.79 136.926 195.642 136.926C205.24 136.926 215.207 138.147 224.769 136.659C259.774 131.212 295.781 134.526 331 134.526" stroke="white" stroke-width="2" stroke-linecap="round"/>
<path d="M93.9947 17.8301C81.4554 17.8301 79.4208 34.1107 78.0576 43.1418C76.9088 50.7526 74.2432 66.9169 79.0621 73.8775C86.4384 84.5323 93.9217 85.3281 106.048 85.3281C115.105 85.3281 121.533 77.2185 126.003 70.1946C131.259 61.9345 132.565 57.0729 132.565 47.3605C132.565 41.2313 128.286 27.1311 120.512 26.2673C114.694 25.621 110.483 21.446 104.24 21.446C98.7347 21.446 93.1421 20.2407 87.9681 20.2407" stroke="white" stroke-width="2" stroke-linecap="round"/>
<path d="M114.485 85.3281C114.485 89.4577 116.743 92.2502 117.833 96.176C119.617 102.598 121.778 109.509 124.128 115.729C127.173 123.791 127.891 132.249 130.155 140.505C131.702 146.149 134.526 152.733 134.976 158.585C135.195 161.433 137.386 164.468 137.386 167.29C137.386 178.599 133.898 190.243 133.77 201.709C133.665 211.162 131.36 239.42 131.36 229.967" stroke="white" stroke-width="2" stroke-linecap="round"/>
<path d="M136.181 166.084C143.897 166.084 148.506 171.559 155.533 173.316C159.86 174.398 164.777 177.724 167.519 181.151C171.137 185.673 175.371 189.828 178.099 195.012C180.277 199.15 184.753 201.758 186.804 205.86" stroke="white" stroke-width="2" stroke-linecap="round"/>
<path d="M118.102 107.024C100.228 107.024 84.5554 102.119 68.6833 94.033C61.766 90.509 59.3747 85.6619 54.2195 80.5066C51.7401 78.0272 47.2252 74.9554 45.7822 72.0693" stroke="white" stroke-width="2" stroke-linecap="round"/>
<path d="M120.512 103.407C136.088 103.407 141.782 84.0236 149.707 73.542C155.451 65.9451 164.499 58.8249 168.725 50.373" stroke="white" stroke-width="2" stroke-linecap="round"/>
<path d="M75.5522 55.8097C66.2317 53.6738 56.1154 48.3633 48.6591 42.3983C47.1093 41.1585 50.8459 41.9487 51.538 42.0004C61.5793 42.7506 71.6213 45.8671 81.3099 48.4604C84.7661 49.3854 88.1486 50.7993 91.6318 51.5733C92.1354 51.6852 90.6272 51.2935 90.1807 51.035C88.2992 49.9457 86.6467 48.3748 85.0314 46.939C81.553 43.8471 78.6255 40.5021 76.0671 36.6171C74.6643 34.4869 72.6489 32.2556 71.8541 29.7827C71.4872 28.6414 74.2829 29.6528 74.5691 29.7593C77.4513 30.8317 79.821 32.5761 82.4568 34.0659C83.853 34.8551 83.9963 34.7954 83.1824 33.1531C79.9444 26.6192 76.1618 20.3715 72.8839 13.8669C72.7473 13.5959 71.0913 9.84692 71.6668 10.1922C75.0253 12.2073 77.7587 15.3876 80.3503 18.2672C81.2044 19.2162 82.0536 20.1646 82.9483 21.0758C83.3657 21.501 84.2122 22.9355 84.2122 22.3397C84.2122 21.5929 83.342 20.0985 83.1356 19.3906C82.5504 17.3842 82.0431 15.3567 81.4504 13.352C81.2727 12.7511 79.5815 8.3747 81.5908 9.63049C85.7225 12.2128 88.717 17.0382 91.468 20.9354C92.2644 22.0637 93.6681 25.8273 93.6681 24.4462C93.6681 21.6866 92.3005 18.7734 92.0765 15.9734C91.9372 14.2323 91.6199 11.884 92.0063 10.1454C92.0226 10.072 96.1721 16.4062 96.5938 17.2607C97.9105 19.9287 99.1925 22.6265 100.315 25.3825C101.236 27.6423 100.83 20.5201 100.83 18.0799C100.83 14.7444 100.492 11.1434 101.439 7.89847C101.979 6.04501 102.666 8.20143 103.171 9.11557C104.334 11.2202 105.232 13.5854 105.792 15.9266C106.338 18.2099 106.758 14.2971 106.916 13.7265C107.936 10.0355 108.916 6.34237 109.865 2.63222C110.809 -1.0602 111.3 2.40073 111.597 4.31742C112.227 8.38572 112.779 12.4778 113.469 16.5351C113.683 17.7923 113.604 19.3591 114.312 20.4205" stroke="white" stroke-width="2" stroke-linecap="round"/>
</svg>
