<svg width="48" height="33" viewBox="0 0 48 33" fill="none" xmlns="http://www.w3.org/2000/svg">
<path d="M37.7982 2.09865C31.0674 2.09865 24.1176 1.56069 17.4222 2.27297C15.5685 2.47017 13.7248 2.44729 11.8633 2.44729C11.2717 2.44729 10.2452 2.24246 9.73278 2.64098C8.8038 3.36352 8.0599 4.66779 7.31168 5.56566C6.37373 6.69121 4.93253 7.48143 4.17393 8.72278C3.35455 10.0636 2.15339 11.4843 1.90778 13.0808C1.52655 15.5588 1.53978 17.9819 1.53978 20.499C1.53978 22.4923 1.19937 24.8718 1.81094 26.7745C2.5533 29.084 6.22125 30.0873 8.24138 30.687C12.1794 31.8561 16.3788 31.7329 20.4437 31.7329C24.7113 31.7329 28.9789 31.7329 33.2465 31.7329C36.0485 31.7329 38.714 31.4743 41.1102 29.8154C44.5927 27.4045 46.5141 21.1661 46.5141 17.1095C46.5141 13.2971 44.1882 8.7484 41.362 6.20483C39.3467 4.39103 37.5503 3.54496 36.055 1.05273" stroke="white" stroke-linecap="round"/>
<path d="M21.0634 11.1641C21.0634 13.54 21.0634 15.9159 21.0634 18.2918C21.0634 19.7415 20.518 22.4387 21.0828 23.8506C21.13 23.9687 24.949 21.4549 25.2277 21.2746C26.3708 20.5349 27.9456 19.5832 28.9078 18.621C29.6491 17.8798 30.2435 17.0333 31.0965 16.3936C31.8391 15.8367 28.4867 15.0866 28.0362 14.9216C26.0986 14.2121 23.8585 12.9073 21.7607 12.9073" stroke="white" stroke-linecap="round"/>
</svg>
